<svg width="428" height="428" viewBox="0 0 428 428" fill="none" xmlns="http://www.w3.org/2000/svg">
<path d="M280.396 275.644C275.389 275.691 271.003 280.332 268.158 280.356C266.497 280.356 262.539 279.561 262.595 273.387L262.245 237.61L226.445 237.928C220.246 237.928 219.46 241.862 219.468 243.53C219.468 246.375 224.14 250.754 224.188 255.761C224.244 261.665 219.642 265.694 213.809 265.948C207.968 265.797 203.304 261.848 203.248 255.951C203.2 250.945 207.77 246.479 207.746 243.634C207.746 241.965 206.872 238.031 200.673 238.166L171.779 238.437L164.873 238.492L165.199 275.429C164.865 280.594 161.313 281.357 159.755 281.365C156.91 281.365 152.444 276.828 147.445 276.867C141.541 276.923 137.591 281.596 137.44 287.429C137.695 293.262 141.732 297.863 147.628 297.807C152.635 297.76 157.013 293.119 159.866 293.095C161.456 293.095 164.984 293.778 165.429 298.936L165.763 335.865L201.563 335.547C207.762 335.547 208.557 331.621 208.541 329.984C208.541 327.139 203.868 322.752 203.82 317.754C203.773 311.849 208.366 307.82 214.199 307.566C220.04 307.709 224.704 311.667 224.76 317.563C224.8 322.562 220.238 327.028 220.262 329.881C220.262 331.549 221.144 335.483 227.335 335.348L263.135 335.022L262.817 299.222C262.682 293.031 266.624 292.165 268.293 292.149C271.138 292.149 275.604 296.687 280.602 296.639C286.507 296.591 290.456 291.919 290.607 286.086C290.329 280.181 286.292 275.588 280.396 275.644Z" fill="#FAA75B"/>
<g style="mix-blend-mode:soft-light">
<path d="M170.364 272.846C173.073 281.969 195.07 266.147 199.362 256.158C200.514 253.488 201.952 249.006 201.571 246.073C201.213 243.252 198.885 242.1 196.35 241.56C192.559 240.765 182.928 241.361 174.838 241.782C170.912 241.989 170.07 241.822 170.133 246.288L170.364 272.846Z" fill="white"/>
</g>
<g style="mix-blend-mode:soft-light">
<path d="M229.202 246.749C230.251 250.587 233.136 254.171 233.215 258.256C233.217 262.524 231.673 266.648 228.869 269.866C227.096 271.837 222.94 274.547 227.144 276.812C228.532 277.401 230.052 277.61 231.547 277.416C234.066 277.281 236.561 277.026 239.096 276.979C243.61 276.891 250.706 276.875 253.488 272.528C255.824 268.889 255.467 263.318 255.475 259.17C255.475 254.894 255.681 249.864 254.139 245.795C252.455 241.345 244.174 241.083 240.296 241.027C236.553 240.995 227.613 240.868 229.202 246.749Z" fill="white"/>
</g>
<g style="mix-blend-mode:multiply">
<path d="M284.425 279.069C287.906 283.9 283.304 290.425 277.797 290.536C270.923 290.687 263.366 285.045 256.826 289.177C252.391 291.982 252.542 297.736 253.019 302.369C253.416 306.207 254.171 310.006 254.426 313.86C254.616 316.768 254.696 320.217 253.114 322.768C251.533 325.319 248.616 326.654 245.589 326.829C241.615 327.067 235.162 327.115 233.605 322.546C232.532 319.415 233.12 316.069 232.27 312.898C231.591 309.928 230.166 307.179 228.13 304.912C223.934 300.573 217.799 299.031 211.918 299.397C205.886 299.762 199.807 302.456 197.375 308.353C195.945 311.817 196.096 314.75 196.7 318.342C197.05 320.432 197.256 322.458 196.207 324.373C194.324 327.814 187.195 326.201 184.207 325.836C180.91 325.43 177.397 324.652 175.514 321.616C171.373 314.964 174.719 305.46 174.719 298.197C174.719 294.064 174.123 288.883 170.11 286.602C164.134 283.193 158.356 288.684 152.825 290.456C143.949 293.301 139.967 288.994 137.846 284.337C137.569 285.335 137.414 286.362 137.385 287.397C137.639 293.23 141.676 297.831 147.573 297.775C152.579 297.728 156.958 293.087 159.811 293.063C161.4 293.063 164.928 293.746 165.373 298.904L165.707 335.833L201.508 335.515C207.706 335.515 208.501 331.589 208.485 329.952C208.485 327.107 203.812 322.72 203.765 317.722C203.717 311.817 208.31 307.788 214.143 307.534C219.984 307.677 224.649 311.635 224.704 317.531C224.744 322.53 220.183 326.996 220.207 329.849C220.207 331.518 221.089 335.451 227.279 335.316L263.08 334.99L262.762 299.19C262.627 292.999 266.568 292.133 268.237 292.117C271.082 292.117 275.548 296.655 280.547 296.607C286.451 296.56 290.401 291.887 290.552 286.054C290.298 280.213 286.261 275.62 280.364 275.675C280.118 275.675 279.887 275.675 279.649 275.723C281.542 276.33 283.207 277.496 284.425 279.069Z" fill="#FBBEA9"/>
</g>
<path d="M225.062 236.871C225.062 231.864 220.373 227.486 220.349 224.641C220.349 222.972 221.144 219.014 227.327 219.038L263.127 218.712L262.801 182.952C262.801 176.753 258.875 175.958 257.238 175.974C254.386 175.974 250.007 180.639 245 180.687C239.104 180.742 235.067 176.149 234.82 170.308C234.963 164.475 238.913 159.811 244.818 159.755C249.824 159.707 254.282 164.277 257.127 164.245C258.796 164.245 262.738 163.371 262.603 157.172L262.34 128.278L262.277 121.372L225.348 121.698C220.174 121.364 219.42 117.812 219.404 116.262C219.404 113.417 223.941 108.943 223.902 103.944C223.846 98.0478 219.181 94.0903 213.34 93.9473C207.507 94.1936 202.914 98.2306 202.962 104.127C203.009 109.134 207.65 113.52 207.682 116.365C207.682 117.955 206.999 121.483 201.833 121.928L164.904 122.254L165.23 158.062C165.23 164.261 169.204 165.055 170.833 165.04C173.678 165.04 178.056 160.367 183.063 160.327C188.959 160.271 192.996 164.865 193.251 170.706C193.108 176.475 189.134 181.187 183.222 181.187C178.223 181.235 173.757 176.674 170.912 176.69C169.243 176.69 165.349 177.572 165.445 183.762L165.763 219.571L201.571 219.245C207.762 219.11 208.628 223.059 208.636 224.72C208.636 227.565 204.098 232.031 204.146 237.038C204.193 242.934 208.866 246.884 214.707 247.035C220.524 246.804 225.117 242.767 225.062 236.871Z" fill="#00BAD5"/>
<g style="mix-blend-mode:soft-light">
<path d="M227.859 126.839C218.736 129.557 234.566 151.546 244.548 155.837C247.218 156.989 251.66 158.428 254.632 158.046C257.453 157.689 258.606 155.368 259.146 152.825C259.941 149.035 259.345 139.403 258.916 131.321C258.709 127.388 258.916 126.553 254.418 126.609L227.859 126.839Z" fill="white"/>
</g>
<g style="mix-blend-mode:soft-light">
<path d="M253.964 185.685C250.118 186.726 246.542 189.611 242.449 189.659C238.178 189.651 234.055 188.092 230.847 185.272C228.876 183.508 226.158 179.344 223.901 183.556C223.304 184.938 223.096 186.458 223.297 187.95C223.424 190.469 223.679 192.973 223.726 195.5C223.814 200.021 223.83 207.11 228.177 209.899C231.816 212.228 237.395 211.87 241.543 211.878C245.811 211.878 250.849 212.093 254.91 210.551C259.36 208.858 259.622 200.578 259.678 196.708C259.71 193.028 259.861 184.088 253.964 185.685Z" fill="white"/>
</g>
<g style="mix-blend-mode:multiply">
<path d="M221.637 240.9C216.806 244.381 210.289 239.78 210.17 234.272C210.027 227.406 215.669 219.841 211.529 213.301C208.732 208.866 202.978 209.017 198.345 209.494C194.507 209.892 190.7 210.646 186.846 210.901C183.937 211.099 180.489 211.171 177.938 209.59C175.387 208.008 174.06 205.092 173.885 202.064C173.646 198.09 173.591 191.638 178.16 190.08C181.291 189.007 184.645 189.595 187.808 188.753C190.78 188.071 193.53 186.646 195.802 184.613C200.141 180.417 201.683 174.282 201.317 168.393C200.944 162.37 198.25 156.282 192.353 153.851C188.896 152.428 185.996 152.571 182.372 153.175C180.282 153.525 178.248 153.739 176.332 152.69C172.899 150.799 174.513 143.671 174.878 140.683C175.283 137.393 176.062 133.872 179.09 131.989C185.749 127.849 195.246 131.194 202.517 131.194C206.649 131.194 211.831 130.598 214.112 126.585C217.513 120.617 212.029 114.832 210.257 109.301C207.412 100.432 211.72 96.4427 216.376 94.3209C215.377 94.0424 214.346 93.8903 213.309 93.8679C207.476 94.1143 202.883 98.1512 202.93 104.048C202.978 109.054 207.619 113.441 207.651 116.286C207.651 117.875 206.967 121.404 201.802 121.849L164.873 122.175L165.199 157.983C165.199 164.181 169.172 164.976 170.801 164.96C173.646 164.96 178.025 160.287 183.032 160.248C188.928 160.192 192.965 164.785 193.219 170.626C193.108 176.475 189.135 181.188 183.222 181.188C178.224 181.235 173.758 176.674 170.913 176.69C169.244 176.69 165.35 177.572 165.445 183.762L165.763 219.571L201.571 219.245C207.762 219.11 208.628 223.059 208.636 224.72C208.636 227.565 204.099 232.031 204.146 237.038C204.194 242.934 208.867 246.884 214.708 247.035C220.541 246.781 225.134 242.744 225.038 236.847C225.038 236.609 225.038 236.37 224.991 236.132C224.388 238.027 223.217 239.692 221.637 240.9Z" fill="#D1D3D4"/>
</g>
<path d="M194.84 0V42.7778C185.185 51.9404 184.684 56.5416 180.536 64.5044C175.935 73.2459 165.89 80.4695 165.89 80.4695C162.107 88.9011 170.261 89.3382 170.261 89.3382C174.149 89.256 177.941 88.1105 181.225 86.0259C184.509 83.9414 187.159 80.9974 188.888 77.5133L189.039 142.185C188.888 150.131 194.705 150.608 194.705 150.608C202.191 151.49 203.447 146.174 203.447 146.174V149.718C203.447 157.729 210.797 157.665 210.797 157.665C217.886 158.102 218.363 150.568 218.363 150.568V140.85C218.363 147.946 224.029 147.056 224.029 147.056C232.063 147.056 230.641 139.522 230.641 139.522V127.101C230.641 133.308 236.76 132.378 236.76 132.378C243.371 132.378 243.165 125.782 243.165 125.782V59.6409C240.781 51.6941 232.039 45.4399 232.039 45.4399V0H194.84Z" fill="#EFBB8C"/>
<g style="mix-blend-mode:multiply">
<path d="M192.948 79.7385C192.837 77.7597 193.171 75.7015 192.853 73.7466C192.734 73.0154 192.496 72.0141 191.558 71.7519C189.817 71.2671 188.951 73.0075 188.729 73.3413C185.018 78.5623 182.443 83.6245 175.934 85.492C170.681 87.0098 166.644 84.0059 168.186 78.6577C166.78 79.8179 165.858 80.4855 165.858 80.4855C162.075 88.917 170.229 89.3541 170.229 89.3541C174.117 89.2719 177.909 88.1264 181.193 86.0419C184.477 83.9573 187.127 81.0133 188.856 77.5292L189.007 142.2C188.856 150.147 194.673 150.624 194.673 150.624C202.159 151.506 203.414 146.19 203.414 146.19V149.734C203.414 157.744 210.765 157.681 210.765 157.681C215.398 157.967 217.202 154.852 217.917 152.659C214.389 154.653 209.176 155.297 208.008 150.473C207.3 147.509 207.833 143.941 207.817 140.937C207.817 136.129 207.738 131.313 207.698 126.506C207.698 122.389 207.428 118.209 207.698 114.108V101.759C207.698 101.759 207.698 99.6611 206.482 99.2797C204.71 98.7314 203.859 100.265 203.43 101.759L203.438 135.891C203.732 138.68 203.502 145.562 200.307 146.15C195.031 147.12 193.306 145.276 193.203 140.659L192.948 79.7385Z" fill="#F0CFBA"/>
</g>
<g style="mix-blend-mode:multiply">
<path d="M236.815 129.128C242.695 130.185 243.077 125.782 243.077 125.782C243.077 125.782 243.284 132.378 236.672 132.378C236.672 132.378 230.553 133.308 230.553 127.102V92.0799C230.553 91.8336 232.198 91.6508 232.428 91.7144C232.691 91.8151 232.925 91.9797 233.108 92.1934C233.291 92.4071 233.418 92.6631 233.477 92.9382C234.065 94.5276 233.874 96.3394 233.922 97.9606C234.105 105.057 234.121 117.327 233.994 124.424C234.018 124.424 233.263 128.484 236.815 129.128Z" fill="#F0CFBA"/>
</g>
<g style="mix-blend-mode:multiply">
<path d="M218.299 140.85C218.285 141.791 218.417 142.729 218.689 143.631C218.732 143.726 218.779 143.819 218.832 143.909C218.901 144.009 218.929 144.131 218.911 144.251C219.339 145.201 220.062 145.987 220.973 146.493C221.883 146.998 222.933 147.196 223.965 147.056C228.932 147.056 230.283 144.171 230.593 141.97C230.322 142.554 229.905 143.057 229.381 143.43C228.857 143.803 228.245 144.034 227.605 144.1C225.459 144.227 224.379 144.1 222.837 142.566C221.295 141.032 220.731 137.003 221.248 127.944C221.502 123.231 221.319 115.595 221.414 104.27C221.414 103.563 220.842 95.5924 218.848 98.3977C217.902 99.7248 218.252 102.141 218.252 103.69L218.299 140.85Z" fill="#F0CFBA"/>
</g>
<g style="mix-blend-mode:multiply">
<path d="M194.84 0V42.7778C185.185 51.9404 184.684 56.5416 180.536 64.5044C179.868 65.7611 179.117 66.9718 178.287 68.1281C178.971 67.5957 179.67 67.0871 180.369 66.5388C183.24 64.2345 185.819 61.587 188.046 58.6555C190.732 55.3496 193.132 51.7894 196.263 48.8571C198.575 46.5898 201.477 45.0175 204.639 44.3194C205.282 44.2002 210.734 42.6506 213.65 42.7301C215.852 42.7301 209.733 40.6003 209.002 38.3434C208.731 37.5487 208.135 14.2804 208.04 0H194.84Z" fill="#F0CFBA"/>
</g>
<path d="M203.565 151.633C203.677 152.023 203.788 152.428 203.931 152.786C204.34 153.828 204.911 154.799 205.624 155.662C204.512 154.583 203.788 153.167 203.565 151.633Z" fill="#EFBB8C"/>
<path d="M226.151 38.4546C225.916 38.4567 225.692 38.5514 225.526 38.7181C225.361 38.8848 225.269 39.1099 225.269 39.3446V49.7629C225.268 49.9589 225.332 50.1497 225.451 50.3051C225.571 50.4605 225.738 50.5717 225.928 50.6212C236.076 53.331 236.958 62.6845 237.014 73.7146C237.016 73.9493 237.111 74.1737 237.277 74.3389C237.444 74.5041 237.669 74.5968 237.904 74.5967C238.139 74.5947 238.363 74.5 238.528 74.3333C238.693 74.1666 238.786 73.9414 238.786 73.7067C238.73 64.7904 238.667 52.6317 227.033 49.0715V39.3446C227.033 39.1099 226.94 38.8848 226.775 38.7181C226.61 38.5514 226.385 38.4567 226.151 38.4546Z" fill="white"/>
<path d="M236.053 13.8989H192.139V31.1197H236.053V13.8989Z" fill="#E4DBDA"/>
<path d="M239.931 0H188.269V13.899H239.931V0Z" fill="#F9893D"/>
<path d="M231.873 22.8073C231.874 22.1012 231.666 21.4106 231.275 20.8228C230.884 20.2349 230.327 19.7764 229.675 19.5051C229.024 19.2338 228.306 19.162 227.613 19.2988C226.921 19.4356 226.284 19.7748 225.784 20.2735C225.284 20.7722 224.944 21.4079 224.805 22.1003C224.667 22.7927 224.737 23.5105 225.007 24.1629C225.277 24.8154 225.734 25.3731 226.321 25.7656C226.908 26.158 227.598 26.3674 228.304 26.3674C229.249 26.3675 230.156 25.9926 230.825 25.3252C231.494 24.6577 231.87 23.7522 231.873 22.8073Z" fill="#D6CECE"/>
<path d="M230.545 22.8074C230.545 22.3642 230.414 21.9309 230.168 21.5624C229.922 21.1938 229.572 20.9066 229.162 20.737C228.753 20.5674 228.302 20.523 227.867 20.6095C227.433 20.6959 227.033 20.9094 226.72 21.2228C226.406 21.5362 226.193 21.9355 226.107 22.3702C226.02 22.8049 226.064 23.2555 226.234 23.665C226.404 24.0745 226.691 24.4245 227.059 24.6707C227.428 24.917 227.861 25.0484 228.304 25.0484C228.599 25.0484 228.89 24.9904 229.162 24.8778C229.434 24.7652 229.681 24.6001 229.889 24.392C230.097 24.1839 230.262 23.9369 230.375 23.665C230.488 23.3931 230.545 23.1017 230.545 22.8074Z" fill="#C9C2C2"/>
<path d="M228.074 22.8074C228.074 22.6739 228.021 22.5457 227.928 22.4506C227.834 22.3554 227.707 22.3009 227.573 22.2988C227.438 22.2988 227.309 22.3524 227.213 22.4478C227.118 22.5432 227.064 22.6725 227.064 22.8074C227.067 22.9409 227.121 23.0683 227.216 23.1619C227.311 23.2556 227.44 23.3081 227.573 23.3081C227.706 23.3081 227.833 23.2553 227.927 23.1614C228.021 23.0675 228.074 22.9402 228.074 22.8074Z" fill="#ADA7A8"/>
<path d="M229.075 23.3079C229.351 23.3079 229.576 23.0838 229.576 22.8073C229.576 22.5308 229.351 22.3066 229.075 22.3066C228.798 22.3066 228.574 22.5308 228.574 22.8073C228.574 23.0838 228.798 23.3079 229.075 23.3079Z" fill="#ADA7A8"/>
<path d="M213.03 272.028C213.03 272.028 205.687 272.028 205.679 280.014V283.559C205.679 283.559 204.447 278.242 196.938 279.124C196.938 279.124 191.113 279.569 191.264 287.548L191.113 352.219C189.383 348.735 186.733 345.79 183.45 343.704C180.166 341.618 176.374 340.471 172.485 340.386C172.485 340.386 164.34 340.831 168.115 349.263C168.115 349.263 178.159 356.463 182.761 365.22C186.941 373.167 187.449 377.792 197.065 386.955V428H234.224V384.292C234.224 384.292 242.966 378.07 245.35 370.092V303.95C245.35 303.95 245.564 297.354 238.953 297.354C238.953 297.354 232.833 296.417 232.833 302.631V290.21C232.833 290.21 234.248 282.669 226.222 282.669C226.222 282.669 220.548 281.786 220.548 288.883V279.124C220.548 279.124 220.127 271.583 213.03 272.028Z" fill="#EFBB8C"/>
<g style="mix-blend-mode:multiply">
<path d="M195.238 349.994C195.126 351.973 195.468 354.031 195.15 355.986C195.031 356.717 194.785 357.71 193.847 357.972C192.114 358.465 191.248 356.725 191.026 356.383C187.315 351.162 184.732 346.1 178.231 344.224C172.978 342.715 168.934 345.718 170.483 351.059C169.077 349.898 168.147 349.239 168.147 349.239C164.372 340.807 172.518 340.362 172.518 340.362C176.407 340.447 180.198 341.594 183.482 343.68C186.765 345.766 189.415 348.711 191.145 352.195L191.296 287.524C191.145 279.577 196.97 279.1 196.97 279.1C204.448 278.218 205.711 283.535 205.711 283.535V279.99C205.711 271.98 213.062 272.004 213.062 272.004C217.695 271.718 219.491 274.833 220.214 277.026C216.678 275.031 211.473 274.388 210.297 279.212C209.589 282.176 210.13 285.744 210.114 288.748C210.114 293.563 210.035 298.379 209.995 303.187C209.955 307.296 209.717 311.484 209.995 315.584V327.941C209.995 327.941 210.035 330.039 208.787 330.421C207.007 330.969 206.164 329.435 205.735 327.941V293.834C206.037 291.044 205.799 284.162 202.612 283.574C197.328 282.605 195.603 284.448 195.508 289.066L195.238 349.994Z" fill="#F0CFBA"/>
</g>
<g style="mix-blend-mode:multiply">
<path d="M239.136 300.604C245.009 299.547 245.39 303.95 245.39 303.95C245.39 303.95 245.605 297.354 238.993 297.354C238.993 297.354 232.874 296.416 232.874 302.631V337.652C232.874 337.899 234.519 338.074 234.742 338.01C235.006 337.912 235.241 337.75 235.426 337.537C235.61 337.325 235.739 337.069 235.798 336.794C236.379 335.245 236.196 333.393 236.236 331.772C236.418 324.675 236.442 312.405 236.307 305.309C236.307 305.309 235.56 301.248 239.136 300.604Z" fill="#F0CFBA"/>
</g>
<g style="mix-blend-mode:multiply">
<path d="M220.588 288.883C220.573 287.941 220.704 287.003 220.977 286.101C221.033 286.006 221.072 285.911 221.128 285.823C221.194 285.722 221.222 285.601 221.208 285.482C221.635 284.531 222.357 283.744 223.268 283.237C224.179 282.73 225.229 282.531 226.262 282.668C231.229 282.668 232.579 285.561 232.889 287.762C232.617 287.18 232.198 286.678 231.675 286.305C231.152 285.932 230.541 285.7 229.901 285.633C227.748 285.505 226.675 285.633 225.133 287.166C223.592 288.7 223.019 292.729 223.544 301.781C223.806 306.501 223.623 314.138 223.719 325.462C223.719 326.169 223.139 334.14 221.152 331.335C220.206 330.008 220.556 327.592 220.548 326.042L220.588 288.883Z" fill="#F0CFBA"/>
</g>
<g style="mix-blend-mode:multiply">
<path d="M182.777 365.22C186.957 373.167 187.465 377.792 197.081 386.955V428H210.273C210.392 413.656 210.948 392.184 211.211 391.389C211.942 389.124 218.069 386.963 215.859 387.002C212.943 387.042 207.491 385.5 206.848 385.413C203.686 384.713 200.785 383.141 198.472 380.875C195.341 377.943 192.949 374.383 190.255 371.077C188.03 368.144 185.451 365.496 182.578 363.194C181.887 362.677 181.18 362.168 180.496 361.604C181.337 362.756 182.099 363.964 182.777 365.22Z" fill="#F0CFBA"/>
</g>
<path d="M205.822 278.139C205.934 277.749 206.045 277.344 206.188 276.986C206.6 275.943 207.171 274.97 207.88 274.102C206.772 275.186 206.049 276.604 205.822 278.139Z" fill="#EFBB8C"/>
<path d="M228.448 391.27C228.213 391.27 227.988 391.177 227.821 391.012C227.654 390.847 227.56 390.622 227.558 390.388V379.961C227.558 379.767 227.623 379.578 227.743 379.424C227.862 379.27 228.029 379.16 228.217 379.111C238.373 376.401 239.247 367.048 239.343 356.018C239.343 355.901 239.366 355.786 239.411 355.678C239.455 355.571 239.521 355.473 239.604 355.391C239.687 355.309 239.785 355.244 239.893 355.2C240.001 355.157 240.116 355.134 240.233 355.136C240.35 355.134 240.465 355.157 240.573 355.201C240.682 355.246 240.78 355.311 240.862 355.394C240.944 355.477 241.009 355.576 241.052 355.684C241.096 355.793 241.117 355.909 241.115 356.026C241.067 364.942 240.996 377.093 229.362 380.661V390.411C229.358 390.528 229.332 390.643 229.285 390.749C229.237 390.856 229.169 390.951 229.084 391.031C228.999 391.111 228.899 391.173 228.79 391.214C228.68 391.255 228.564 391.274 228.448 391.27Z" fill="white"/>
<path d="M238.341 398.613H194.427V415.833H238.341V398.613Z" fill="#E4DBDA"/>
<path d="M242.219 415.833H190.557V428H242.219V415.833Z" fill="#F9893D"/>
<path d="M234.161 406.925C234.162 407.631 233.954 408.322 233.563 408.91C233.171 409.498 232.614 409.957 231.962 410.228C231.309 410.499 230.591 410.57 229.898 410.433C229.205 410.295 228.569 409.955 228.069 409.456C227.57 408.956 227.23 408.32 227.093 407.627C226.955 406.934 227.026 406.216 227.298 405.564C227.569 404.911 228.027 404.354 228.615 403.963C229.203 403.571 229.894 403.363 230.6 403.365C231.545 403.365 232.45 403.74 233.118 404.408C233.786 405.075 234.161 405.981 234.161 406.925Z" fill="#D6CECE"/>
<path d="M232.842 406.925C232.842 407.368 232.711 407.802 232.465 408.17C232.218 408.539 231.868 408.826 231.459 408.996C231.049 409.165 230.599 409.21 230.164 409.123C229.729 409.037 229.33 408.823 229.017 408.51C228.703 408.196 228.49 407.797 228.403 407.362C228.317 406.928 228.361 406.477 228.531 406.068C228.701 405.658 228.988 405.308 229.356 405.062C229.725 404.816 230.158 404.684 230.601 404.684C231.196 404.684 231.766 404.92 232.186 405.34C232.606 405.761 232.842 406.331 232.842 406.925Z" fill="#C9C2C2"/>
<path d="M230.33 406.925C230.33 407.024 230.301 407.121 230.246 407.203C230.191 407.285 230.113 407.35 230.021 407.388C229.93 407.425 229.829 407.435 229.732 407.416C229.635 407.397 229.546 407.349 229.476 407.279C229.406 407.209 229.358 407.12 229.339 407.023C229.319 406.926 229.329 406.825 229.367 406.733C229.405 406.642 229.469 406.564 229.552 406.509C229.634 406.454 229.731 406.424 229.83 406.424C229.963 406.424 230.09 406.477 230.184 406.571C230.278 406.665 230.33 406.792 230.33 406.925Z" fill="#ADA7A8"/>
<path d="M231.872 406.925C231.872 407.058 231.82 407.185 231.726 407.279C231.632 407.373 231.505 407.426 231.372 407.426C231.239 407.426 231.112 407.373 231.018 407.279C230.924 407.185 230.871 407.058 230.871 406.925C230.871 406.792 230.924 406.665 231.018 406.571C231.112 406.477 231.239 406.424 231.372 406.424C231.505 406.424 231.632 406.477 231.726 406.571C231.82 406.665 231.872 406.792 231.872 406.925Z" fill="#ADA7A8"/>
<path d="M152.357 287.516C152.317 282.509 147.668 278.131 147.644 275.286C147.644 273.617 148.439 269.659 154.614 269.683L190.422 269.357L190.096 233.557C190.096 227.358 186.163 226.572 184.534 226.588C181.689 226.588 177.31 231.26 172.303 231.3C166.407 231.356 162.37 226.762 162.124 220.922C162.267 215.081 166.216 210.416 172.121 210.368C177.119 210.321 181.585 214.882 184.43 214.858C186.099 214.858 190.041 213.984 189.906 207.785L189.643 178.891L189.58 171.985L152.651 172.311C147.486 171.977 146.723 168.425 146.707 166.867C146.707 164.022 151.244 159.556 151.205 154.558C151.149 148.653 146.484 144.704 140.643 144.561C134.81 144.807 130.209 148.844 130.265 154.74C130.312 159.747 134.953 164.134 134.985 166.979C134.985 168.568 134.302 172.096 129.136 172.541L92.1836 172.843L92.5015 208.644C92.5015 214.842 96.4351 215.637 98.0642 215.621C100.917 215.621 105.296 210.948 110.302 210.909C116.199 210.853 120.236 215.446 120.49 221.279C120.339 227.12 116.39 231.793 110.485 231.84C105.487 231.88 101.02 227.319 98.1755 227.343C96.5067 227.343 92.6127 228.225 92.7001 234.415L93.018 270.224L128.818 269.898C135.017 269.763 135.883 273.704 135.891 275.373C135.891 278.218 131.353 282.684 131.401 287.683C131.449 293.587 136.122 297.537 141.955 297.688C147.811 297.449 152.413 293.412 152.357 287.516Z" fill="#EB495A"/>
<g style="mix-blend-mode:soft-light">
<path d="M155.154 177.484C146.031 180.202 161.853 202.191 171.842 206.482C174.521 207.635 178.995 209.073 181.935 208.692C184.748 208.334 185.908 206.014 186.449 203.471C187.243 199.68 186.647 190.048 186.218 181.959C186.012 178.033 186.218 177.19 181.712 177.254L155.154 177.484Z" fill="white"/>
</g>
<g style="mix-blend-mode:soft-light">
<path d="M181.251 236.33C177.413 237.372 173.829 240.256 169.744 240.304C165.478 240.301 161.357 238.754 158.142 235.949C156.179 234.177 153.461 230.021 151.204 234.233C150.607 235.615 150.398 237.135 150.6 238.627C150.728 241.146 150.982 243.65 151.03 246.177C151.117 250.698 151.133 257.787 155.48 260.576C159.119 262.905 164.69 262.547 168.846 262.555C173.003 262.563 178.152 262.762 182.213 261.22C186.663 259.535 186.925 251.255 186.981 247.377C187.005 243.673 187.132 234.733 181.251 236.33Z" fill="white"/>
</g>
<g style="mix-blend-mode:multiply">
<path d="M148.932 291.545C144.1 295.026 137.584 290.425 137.465 284.918C137.314 278.052 142.964 270.486 138.823 263.954C136.018 259.512 130.265 259.663 125.64 260.139C121.801 260.537 117.995 261.292 114.141 261.546C111.232 261.737 107.783 261.816 105.232 260.235C102.681 258.653 101.354 255.745 101.171 252.709C100.941 248.775 100.885 242.283 105.455 240.725C108.586 239.652 111.939 240.241 115.102 239.39C118.079 238.708 120.831 237.274 123.097 235.226C127.436 231.038 128.977 224.895 128.612 219.015C128.238 212.991 125.544 206.912 119.648 204.472C116.191 203.049 113.29 203.192 109.659 203.796C107.577 204.146 105.542 204.353 103.627 203.304C100.186 201.42 101.799 194.292 102.165 191.304C102.57 188.014 103.349 184.494 106.385 182.61C113.044 178.47 122.54 181.815 129.812 181.815C133.944 181.815 139.125 181.219 141.406 177.206C144.807 171.238 139.316 165.453 137.552 159.922C134.707 151.045 139.014 147.064 143.663 144.942C142.666 144.664 141.638 144.512 140.604 144.489C134.771 144.736 130.169 148.773 130.225 154.669C130.273 159.676 134.914 164.062 134.945 166.907C134.945 168.497 134.262 172.025 129.097 172.47L92.1836 172.844L92.5015 208.644C92.5015 214.842 96.4351 215.637 98.0642 215.621C100.917 215.621 105.296 210.949 110.302 210.909C116.199 210.853 120.236 215.446 120.49 221.279C120.339 227.12 116.39 231.793 110.485 231.841C105.487 231.88 101.02 227.319 98.1755 227.343C96.5067 227.343 92.6127 228.225 92.7001 234.416L93.018 270.224L128.818 269.898C135.017 269.763 135.883 273.705 135.891 275.373C135.891 278.218 131.353 282.685 131.401 287.683C131.449 293.588 136.122 297.537 141.955 297.688C147.795 297.434 152.389 293.397 152.333 287.5C152.333 287.262 152.333 287.023 152.285 286.785C151.673 288.674 150.504 290.333 148.932 291.545Z" fill="#D1D3D4"/>
</g>
<path d="M191.129 232.182C196.136 232.143 200.514 227.494 203.359 227.47C205.028 227.47 208.986 228.265 208.922 234.447L209.248 270.248L245.048 269.922C251.247 269.922 252.034 265.996 252.026 264.359C252.026 261.506 247.353 257.127 247.305 252.129C247.258 246.224 251.843 242.187 257.684 241.941C263.525 242.084 268.19 246.042 268.245 251.938C268.285 256.945 263.723 261.411 263.747 264.248C263.747 265.917 264.621 269.858 270.82 269.723L299.723 269.461L306.62 269.397L306.295 232.468C306.628 227.303 310.181 226.54 311.738 226.524C314.583 226.524 319.049 231.07 324.048 231.022C329.952 230.966 333.902 226.302 334.053 220.461C333.798 214.628 329.769 210.035 323.865 210.09C318.858 210.13 314.48 214.779 311.627 214.803C310.038 214.803 306.509 214.119 306.064 208.962L305.73 172.025L269.93 172.351C263.731 172.351 262.937 176.324 262.953 177.953C262.953 180.798 267.625 185.177 267.673 190.183C267.721 196.08 263.127 200.117 257.294 200.371C251.454 200.22 246.781 196.271 246.733 190.374C246.693 185.368 251.255 180.902 251.231 178.057C251.231 176.388 250.349 172.454 244.158 172.589L208.358 172.907L208.676 208.715C208.811 214.906 204.869 215.772 203.2 215.788C200.355 215.788 195.897 211.242 190.891 211.29C184.994 211.346 181.037 216.011 180.886 221.851C181.188 227.645 185.233 232.238 191.129 232.182Z" fill="#785D9E"/>
<g style="mix-blend-mode:soft-light">
<path d="M301.185 234.988C298.475 225.865 276.478 241.687 272.187 251.676C271.035 254.346 269.596 258.788 269.978 261.76C270.335 264.582 272.656 265.734 275.199 266.274C278.989 267.069 288.621 266.473 296.711 266.044C300.637 265.837 301.479 266.044 301.415 261.546L301.185 234.988Z" fill="white"/>
</g>
<g style="mix-blend-mode:soft-light">
<path d="M242.314 261.085C241.273 257.239 238.389 253.663 238.341 249.578C238.349 245.304 239.908 241.179 242.728 237.968C244.5 235.997 248.656 233.287 244.452 231.022C243.045 230.432 241.504 230.237 239.994 230.458C237.475 230.585 234.972 230.839 232.452 230.887C227.923 230.982 220.834 230.99 218.053 235.337C215.716 238.977 216.074 244.556 216.066 248.704C216.066 252.979 215.859 258.01 217.401 262.07C219.086 266.521 227.366 266.783 231.245 266.838C234.98 266.838 243.912 266.958 242.314 261.085Z" fill="white"/>
</g>
<g style="mix-blend-mode:multiply">
<path d="M187.1 228.757C183.619 223.926 188.22 217.409 193.728 217.29C200.594 217.147 208.159 222.789 214.699 218.657C219.134 215.852 218.983 210.098 218.506 205.465C218.108 201.627 217.353 197.82 217.099 193.966C216.908 191.057 216.829 187.609 218.41 185.058C219.992 182.507 222.908 181.18 225.944 181.005C229.87 180.766 236.362 180.719 237.92 185.28C238.993 188.411 238.405 191.765 239.255 194.928C239.937 197.9 241.362 200.65 243.395 202.922C247.591 207.261 253.726 208.803 259.615 208.437C265.503 208.072 271.718 205.37 274.165 199.465C275.596 196.008 275.445 193.108 274.841 189.484C274.491 187.394 274.285 185.36 275.333 183.444C277.217 180.011 284.345 181.625 287.333 181.99C290.631 182.395 294.144 183.174 296.035 186.202C300.167 192.861 296.83 202.366 296.79 209.629C296.79 213.762 297.394 218.943 301.399 221.224C307.367 224.633 313.16 219.142 318.683 217.369C327.56 214.524 331.541 218.832 333.671 223.488C333.946 222.488 334.098 221.458 334.124 220.421C333.87 214.588 329.841 209.995 323.936 210.05C318.93 210.09 314.551 214.739 311.698 214.763C310.109 214.763 306.58 214.079 306.135 208.922L305.802 171.985L270.001 172.311C263.803 172.311 263.008 176.284 263.024 177.913C263.024 180.758 267.697 185.137 267.744 190.144C267.792 196.04 263.199 200.077 257.366 200.331C251.525 200.18 246.852 196.231 246.804 190.334C246.765 185.328 251.326 180.862 251.302 178.017C251.302 176.348 250.42 172.414 244.23 172.549L208.429 172.867L208.747 208.676C208.882 214.866 204.941 215.732 203.272 215.748C200.427 215.748 195.969 211.203 190.962 211.25C185.066 211.306 181.108 215.971 180.957 221.812C181.211 227.645 185.248 232.238 191.145 232.182C191.383 232.182 191.63 232.182 191.86 232.143C189.966 231.524 188.306 230.343 187.1 228.757Z" fill="#D1D3D4"/>
</g>
<path d="M428 201.961H385.222C376.059 192.305 371.458 191.805 363.496 187.656C354.754 183.055 347.53 173.01 347.53 173.01C339.107 169.228 338.662 177.381 338.662 177.381C338.748 181.261 339.893 185.043 341.971 188.32C344.049 191.597 346.982 194.244 350.455 195.977L285.791 196.128C277.805 195.977 277.36 201.794 277.36 201.794C276.478 209.28 281.794 210.535 281.794 210.535H278.25C270.248 210.535 270.303 217.894 270.303 217.894C269.858 224.975 277.392 225.451 277.392 225.451H287.15C280.054 225.451 280.944 231.118 280.944 231.118C280.944 239.152 288.485 237.737 288.485 237.737H300.898C294.692 237.737 295.63 243.848 295.63 243.848C295.63 250.46 302.218 250.253 302.218 250.253H368.367C376.314 247.869 382.56 239.128 382.56 239.128H428V201.961Z" fill="#EFBB8C"/>
<g style="mix-blend-mode:multiply">
<path d="M348.27 200.069C350.249 199.958 352.299 200.3 354.254 199.974C354.985 199.855 355.986 199.616 356.248 198.678C356.733 196.938 354.993 196.08 354.659 195.849C349.438 192.138 344.376 189.563 342.508 183.055C340.998 177.802 343.994 173.765 349.343 175.307C348.182 173.9 347.515 172.978 347.515 172.978C339.091 169.196 338.646 177.349 338.646 177.349C338.729 181.236 339.873 185.026 341.954 188.309C344.035 191.592 346.975 194.244 350.455 195.976L285.792 196.127C277.805 195.976 277.36 201.794 277.36 201.794C276.478 209.279 281.795 210.535 281.795 210.535H278.25C270.248 210.535 270.304 217.894 270.304 217.894C270.01 222.527 273.125 224.323 275.326 225.046C273.323 221.518 272.68 216.304 277.503 215.136C280.475 214.429 284.044 214.961 287.04 214.946C291.855 214.946 296.668 214.906 301.479 214.826C305.587 214.826 309.767 214.556 313.868 214.826H326.233C326.233 214.826 328.323 214.826 328.713 213.61C329.261 211.838 327.719 210.996 326.233 210.559L292.126 210.599C289.328 210.893 282.446 210.662 281.866 207.468C280.897 202.191 282.732 200.466 287.357 200.363L348.27 200.069Z" fill="#F0CFBA"/>
</g>
<g style="mix-blend-mode:multiply">
<path d="M298.872 243.968C297.815 249.848 302.217 250.23 302.217 250.23C302.217 250.23 295.63 250.436 295.63 243.824C295.63 243.824 294.692 237.713 300.898 237.713H335.92C336.166 237.713 336.349 239.35 336.286 239.581C336.187 239.843 336.024 240.077 335.811 240.26C335.599 240.444 335.344 240.571 335.07 240.63C333.48 241.218 331.668 241.027 330.039 241.075C322.951 241.258 310.673 241.274 303.576 241.146C303.568 241.138 299.516 240.384 298.872 243.968Z" fill="#F0CFBA"/>
</g>
<g style="mix-blend-mode:multiply">
<path d="M287.15 225.419C286.208 225.406 285.27 225.537 284.369 225.809C284.275 225.853 284.185 225.904 284.098 225.96C283.994 226.024 283.87 226.049 283.749 226.031C282.801 226.461 282.016 227.184 281.51 228.095C281.005 229.005 280.806 230.054 280.944 231.086C280.944 236.06 283.828 237.403 286.03 237.713C285.446 237.443 284.943 237.026 284.571 236.501C284.199 235.977 283.97 235.365 283.908 234.725C283.773 232.58 283.908 231.499 285.434 229.957C286.959 228.415 290.996 227.843 300.056 228.368C304.768 228.622 312.405 228.439 323.737 228.543C324.437 228.543 332.415 227.962 329.61 225.968C328.275 225.022 325.859 225.372 324.309 225.372L287.15 225.419Z" fill="#F0CFBA"/>
</g>
<g style="mix-blend-mode:multiply">
<path d="M428 201.96H385.222C376.06 192.305 371.459 191.804 363.496 187.656C362.239 186.988 361.028 186.237 359.872 185.407C360.405 186.091 360.913 186.79 361.461 187.489C363.766 190.361 366.413 192.939 369.345 195.166C372.651 197.852 376.211 200.252 379.143 203.383C381.41 205.696 382.984 208.598 383.689 211.759C383.808 212.403 385.35 217.854 385.278 220.771C385.278 222.972 387.408 216.853 389.665 216.122C390.499 215.852 413.728 215.256 428.008 215.168L428 201.96Z" fill="#F0CFBA"/>
</g>
<path d="M276.367 210.686C275.985 210.797 275.572 210.909 275.223 211.052C274.178 211.46 273.204 212.032 272.338 212.744C273.418 211.634 274.834 210.911 276.367 210.686Z" fill="#EFBB8C"/>
<path d="M389.545 233.271C389.543 233.036 389.448 232.812 389.281 232.647C389.115 232.482 388.89 232.389 388.655 232.389H378.268C378.072 232.388 377.882 232.452 377.726 232.572C377.571 232.691 377.46 232.859 377.41 233.049C374.7 243.205 365.355 244.079 354.317 244.174C354.083 244.174 353.858 244.267 353.693 244.432C353.527 244.598 353.435 244.822 353.435 245.056C353.437 245.291 353.531 245.515 353.698 245.68C353.865 245.846 354.09 245.938 354.325 245.938C363.241 245.891 375.4 245.819 378.96 234.185H388.711C388.941 234.171 389.157 234.067 389.313 233.897C389.468 233.726 389.552 233.502 389.545 233.271Z" fill="white"/>
<path d="M414.101 199.259H396.88V243.173H414.101V199.259Z" fill="#E4DBDA"/>
<path d="M428 195.388H414.101V247.051H428V195.388Z" fill="#F9893D"/>
<path d="M405.193 238.993C405.899 238.994 406.59 238.786 407.178 238.395C407.765 238.004 408.224 237.447 408.495 236.796C408.766 236.144 408.838 235.426 408.701 234.733C408.565 234.041 408.225 233.404 407.727 232.904C407.228 232.405 406.592 232.064 405.9 231.926C405.208 231.787 404.49 231.857 403.837 232.127C403.185 232.397 402.627 232.854 402.235 233.441C401.842 234.028 401.633 234.719 401.633 235.425C401.633 236.37 402.008 237.276 402.675 237.945C403.343 238.614 404.248 238.991 405.193 238.993Z" fill="#D6CECE"/>
<path d="M405.192 237.666C405.635 237.666 406.069 237.534 406.437 237.288C406.806 237.042 407.093 236.692 407.263 236.282C407.432 235.873 407.477 235.422 407.39 234.987C407.304 234.553 407.09 234.153 406.777 233.84C406.463 233.527 406.064 233.313 405.629 233.227C405.195 233.14 404.744 233.185 404.335 233.354C403.925 233.524 403.575 233.811 403.329 234.18C403.083 234.548 402.951 234.981 402.951 235.425C402.953 236.018 403.19 236.587 403.61 237.007C404.03 237.427 404.598 237.664 405.192 237.666Z" fill="#C9C2C2"/>
<path d="M405.192 235.162C405.326 235.162 405.454 235.11 405.549 235.016C405.644 234.922 405.699 234.795 405.701 234.662C405.71 234.59 405.703 234.517 405.682 234.448C405.661 234.379 405.625 234.316 405.578 234.262C405.53 234.208 405.471 234.164 405.405 234.135C405.34 234.105 405.268 234.09 405.196 234.09C405.124 234.09 405.053 234.105 404.987 234.135C404.921 234.164 404.862 234.208 404.815 234.262C404.767 234.316 404.731 234.379 404.71 234.448C404.689 234.517 404.682 234.59 404.691 234.662C404.691 234.794 404.744 234.922 404.838 235.016C404.932 235.11 405.059 235.162 405.192 235.162Z" fill="#ADA7A8"/>
<path d="M405.193 236.696C405.47 236.696 405.694 236.472 405.694 236.195C405.694 235.919 405.47 235.695 405.193 235.695C404.917 235.695 404.692 235.919 404.692 236.195C404.692 236.472 404.917 236.696 405.193 236.696Z" fill="#ADA7A8"/>
<path d="M155.972 220.127C155.972 220.127 155.972 212.784 148.025 212.776H144.473C144.473 212.776 149.798 211.544 148.908 204.035C148.908 204.035 148.47 198.21 140.484 198.361L75.8206 198.21C79.3047 196.481 82.2487 193.83 84.3333 190.547C86.4178 187.263 87.5633 183.471 87.6455 179.582C87.6455 179.582 87.2005 171.437 78.7768 175.211C78.7768 175.211 71.577 185.256 62.8117 189.857C54.8649 194.038 50.2478 194.546 41.0851 204.162H0V241.313H43.7075C43.7075 241.313 49.9299 250.055 57.9085 252.439H124.058C124.058 252.439 130.646 252.645 130.646 246.034C130.646 246.034 131.583 239.915 125.377 239.915H137.79C137.79 239.915 145.331 241.329 145.331 233.303C145.331 233.303 146.214 227.629 139.117 227.629H148.876C148.876 227.629 156.417 227.279 155.972 220.127Z" fill="#EFBB8C"/>
<g style="mix-blend-mode:multiply">
<path d="M78.0057 202.358C76.0269 202.255 73.9687 202.588 72.0217 202.27C71.2906 202.151 70.2893 201.905 70.027 200.967C69.5423 199.235 71.2826 198.369 71.6164 198.146C76.8375 194.435 81.9473 191.852 83.7751 185.352C85.2849 180.099 82.289 176.054 76.9408 177.604C78.101 176.197 78.7686 175.267 78.7686 175.267C87.1922 171.492 87.6372 179.638 87.6372 179.638C87.555 183.527 86.4095 187.318 84.325 190.602C82.2404 193.886 79.2964 196.536 75.8123 198.265L140.476 198.416C148.422 198.265 148.899 204.09 148.899 204.09C149.789 211.568 144.465 212.832 144.465 212.832H148.017C156.02 212.832 155.964 220.183 155.964 220.183C156.258 224.816 153.135 226.612 150.942 227.335C152.936 223.798 153.588 218.593 148.764 217.417C145.792 216.71 142.224 217.25 139.228 217.234C134.412 217.234 129.604 217.155 124.789 217.115C120.68 217.075 116.5 216.837 112.4 217.115H100.026C100.026 217.115 97.9283 217.155 97.5469 215.907C96.9986 214.127 98.5323 213.285 100.026 212.856L134.134 212.895C136.923 213.189 143.813 212.951 144.393 209.764C145.363 204.48 143.527 202.755 138.902 202.66L78.0057 202.358Z" fill="#F0CFBA"/>
</g>
<g style="mix-blend-mode:multiply">
<path d="M127.396 246.256C128.453 252.129 124.058 252.518 124.058 252.518C124.058 252.518 130.646 252.725 130.646 246.113C130.646 246.113 131.584 239.994 125.377 239.994H90.3479C90.1095 239.994 89.9267 241.639 89.9903 241.862C90.0879 242.126 90.2505 242.361 90.463 242.546C90.6755 242.73 90.931 242.859 91.2062 242.919C92.7955 243.507 94.6074 243.316 96.2285 243.356C103.325 243.538 115.603 243.562 122.699 243.427C122.699 243.427 126.76 242.68 127.396 246.256Z" fill="#F0CFBA"/>
</g>
<g style="mix-blend-mode:multiply">
<path d="M139.117 227.708C140.062 227.693 141.004 227.827 141.907 228.106C141.994 228.153 142.089 228.193 142.177 228.249C142.28 228.315 142.404 228.344 142.526 228.328C143.475 228.757 144.261 229.48 144.766 230.39C145.272 231.301 145.47 232.35 145.332 233.382C145.332 238.349 142.447 239.7 140.246 240.01C140.827 239.738 141.328 239.319 141.7 238.795C142.072 238.272 142.302 237.661 142.367 237.022C142.503 234.868 142.367 233.796 140.834 232.254C139.3 230.712 135.271 230.148 126.219 230.665C121.507 230.927 113.862 230.744 102.538 230.839C101.831 230.839 93.86 230.259 96.6652 228.273C97.9924 227.327 100.416 227.677 101.966 227.669L139.117 227.708Z" fill="#F0CFBA"/>
</g>
<g style="mix-blend-mode:multiply">
<path d="M62.7799 189.929C54.8331 194.109 50.216 194.618 41.0533 204.233H0V217.417C14.352 217.544 35.8163 218.101 36.611 218.355C38.8759 219.094 41.0374 225.213 41.0056 223.004C40.9579 220.087 42.4996 214.644 42.595 213.992C43.2977 210.83 44.8725 207.928 47.1406 205.616C50.0729 202.485 53.6331 200.093 56.939 197.399C59.8714 195.176 62.5167 192.597 64.8143 189.722C65.3388 189.031 65.8394 188.324 66.4036 187.64C65.2492 188.485 64.0385 189.249 62.7799 189.929Z" fill="#F0CFBA"/>
</g>
<path d="M149.909 212.975C150.291 213.086 150.704 213.197 151.054 213.34C152.095 213.755 153.068 214.326 153.938 215.033C152.856 213.926 151.441 213.203 149.909 212.975Z" fill="#EFBB8C"/>
<path d="M36.7301 235.568C36.7301 235.333 36.8227 235.108 36.9879 234.941C37.1531 234.775 37.3775 234.68 37.6122 234.678H48.0384C48.2341 234.678 48.4242 234.743 48.5793 234.862C48.7345 234.981 48.846 235.148 48.8966 235.337C51.5986 245.493 60.952 246.368 71.9901 246.463C72.2248 246.465 72.4491 246.56 72.6143 246.726C72.7795 246.893 72.8722 247.118 72.8722 247.353C72.8712 247.47 72.8471 247.585 72.8014 247.693C72.7557 247.801 72.6893 247.898 72.6059 247.98C72.5225 248.062 72.4238 248.127 72.3154 248.17C72.2071 248.214 72.0911 248.236 71.9742 248.235C63.0579 248.187 50.9072 248.116 47.3391 236.482H37.6122C37.4936 236.482 37.3762 236.458 37.2671 236.412C37.1579 236.365 37.0593 236.297 36.9769 236.212C36.8946 236.127 36.8303 236.026 36.7879 235.915C36.7454 235.804 36.7258 235.686 36.7301 235.568Z" fill="white"/>
<path d="M29.3878 201.547H12.167V245.462H29.3878V201.547Z" fill="#E4DBDA"/>
<path d="M12.1666 197.677H0V249.34H12.1666V197.677Z" fill="#F9893D"/>
<path d="M21.0748 241.281C20.3707 241.281 19.6824 241.073 19.0969 240.681C18.5114 240.29 18.0551 239.734 17.7857 239.084C17.5162 238.433 17.4457 237.717 17.5831 237.027C17.7204 236.336 18.0595 235.702 18.5574 235.204C19.0553 234.706 19.6897 234.367 20.3803 234.23C21.0709 234.092 21.7867 234.163 22.4372 234.432C23.0878 234.702 23.6438 235.158 24.035 235.743C24.4262 236.329 24.635 237.017 24.635 237.721C24.635 238.666 24.2599 239.571 23.5923 240.239C22.9246 240.906 22.019 241.281 21.0748 241.281Z" fill="#D6CECE"/>
<path d="M21.075 239.994C20.6318 239.994 20.1985 239.863 19.83 239.616C19.4614 239.37 19.1742 239.02 19.0046 238.611C18.835 238.201 18.7906 237.75 18.877 237.316C18.9635 236.881 19.177 236.482 19.4904 236.168C19.8038 235.855 20.2031 235.641 20.6378 235.555C21.0725 235.469 21.5231 235.513 21.9326 235.683C22.3421 235.852 22.6921 236.139 22.9383 236.508C23.1846 236.876 23.316 237.31 23.316 237.753C23.316 238.347 23.0799 238.917 22.6596 239.338C22.2394 239.758 21.6693 239.994 21.075 239.994Z" fill="#C9C2C2"/>
<path d="M21.0749 237.459C20.9414 237.457 20.814 237.402 20.7204 237.307C20.6267 237.212 20.5742 237.084 20.5742 236.95C20.5742 236.818 20.627 236.69 20.7209 236.596C20.8147 236.502 20.9421 236.45 21.0749 236.45C21.2084 236.45 21.3366 236.502 21.4317 236.596C21.5269 236.69 21.5814 236.817 21.5835 236.95C21.5835 237.085 21.5299 237.215 21.4345 237.31C21.3391 237.405 21.2098 237.459 21.0749 237.459Z" fill="#ADA7A8"/>
<path d="M21.0749 238.993C20.9421 238.993 20.8147 238.94 20.7209 238.846C20.627 238.752 20.5742 238.625 20.5742 238.492C20.5742 238.358 20.6267 238.23 20.7204 238.135C20.814 238.04 20.9414 237.985 21.0749 237.983C21.2098 237.983 21.3391 238.037 21.4345 238.132C21.5299 238.228 21.5835 238.357 21.5835 238.492C21.5814 238.625 21.5269 238.753 21.4317 238.846C21.3366 238.94 21.2084 238.993 21.0749 238.993Z" fill="#ADA7A8"/>
</svg>
