<svg width="25" height="24" viewBox="0 0 25 24" fill="none" xmlns="http://www.w3.org/2000/svg">
<g clip-path="url(#clip0_97_1725)">
<path d="M12.7764 0C6.14902 0 0.776367 5.37266 0.776367 12C0.776367 18.6273 6.14902 24 12.7764 24C19.4037 24 24.7764 18.6273 24.7764 12C24.7689 5.37578 19.4006 0.0074219 12.7764 0ZM23.1547 16.2039L19.742 16.7928C20.1326 15.3602 20.3436 13.8846 20.3699 12.4H23.9664C23.9213 13.7059 23.6465 14.9936 23.1547 16.2039ZM1.58633 12.4H5.18281C5.20918 13.8846 5.42012 15.3602 5.81074 16.7928L2.39805 16.2039C1.90625 14.9936 1.63145 13.7059 1.58633 12.4ZM2.39805 7.79609L5.81074 7.20723C5.42012 8.63984 5.20918 10.1154 5.18281 11.6H1.58633C1.63145 10.2941 1.90625 9.00645 2.39805 7.79609ZM13.1764 6.42246C14.6137 6.44082 16.0475 6.57168 17.4645 6.81406L18.8764 7.05762C19.3102 8.53379 19.5436 10.0615 19.5703 11.6H13.1764V6.42246ZM17.6008 6.02559C16.1389 5.77578 14.6594 5.64082 13.1764 5.62246V0.822461C15.4695 1.04277 17.4615 3.14238 18.5904 6.19805L17.6008 6.02559ZM12.3764 5.62246C10.8934 5.64082 9.41426 5.77578 7.95234 6.02559L6.9623 6.19688C8.09121 3.14043 10.0832 1.04004 12.3764 0.820703V5.62246ZM8.08867 6.81406C9.50547 6.57168 10.9391 6.44082 12.3764 6.42246V11.6H5.98242C6.00918 10.0615 6.24258 8.53379 6.67637 7.05762L8.08867 6.81406ZM5.98242 12.4H12.3764V17.5775C10.9391 17.5592 9.50527 17.4283 8.08828 17.1859L6.67637 16.9424C6.24258 15.4662 6.00918 13.9385 5.98242 12.4ZM7.95195 17.9744C9.41387 18.2246 10.8932 18.3602 12.3764 18.3797V23.1797C10.0832 22.9592 8.09121 20.8596 6.9623 17.8039L7.95195 17.9744ZM13.1764 18.3797C14.6594 18.3602 16.1385 18.2246 17.6004 17.9744L18.5904 17.8031C17.4615 20.8596 15.4695 22.96 13.1764 23.1793V18.3797ZM17.4641 17.1859C16.0473 17.4283 14.6137 17.5592 13.1764 17.5775V12.4H19.5703C19.5436 13.9385 19.3102 15.4662 18.8764 16.9424L17.4641 17.1859ZM20.3699 11.6C20.3436 10.1154 20.1326 8.63984 19.742 7.20723L23.1547 7.79609C23.6465 9.00645 23.9213 10.2941 23.9664 11.6H20.3699ZM22.75 6.91445L19.4787 6.35C18.8906 4.43145 17.7904 2.70957 16.2963 1.36992C19.0902 2.30234 21.4072 4.29277 22.75 6.91445ZM9.25645 1.36992C7.7623 2.70957 6.66211 4.43145 6.07402 6.35L2.80273 6.91445C4.14551 4.29277 6.4625 2.30234 9.25645 1.36992ZM2.80273 17.0855L6.07402 17.65C6.66211 19.5686 7.7623 21.2904 9.25645 22.6301C6.4625 21.6977 4.14551 19.7072 2.80273 17.0855ZM16.2963 22.6301C17.7904 21.2904 18.8906 19.5686 19.4787 17.65L22.75 17.0855C21.4072 19.7072 19.0902 21.6977 16.2963 22.6301Z" fill="url(#paint0_linear_97_1725)"/>
</g>
<defs>
<linearGradient id="paint0_linear_97_1725" x1="0.776367" y1="12" x2="24.7764" y2="12" gradientUnits="userSpaceOnUse">
<stop offset="0.44375" stop-color="#F9893D"/>
<stop offset="0.641666" stop-color="#F96B31"/>
</linearGradient>
<clipPath id="clip0_97_1725">
<rect width="24" height="24" fill="white" transform="translate(0.776367)"/>
</clipPath>
</defs>
</svg>
