<svg width="302" height="117" viewBox="0 0 302 117" fill="none" xmlns="http://www.w3.org/2000/svg">
<path d="M297.055 116.11C299.189 116.11 301.11 114.402 301.11 112.055C301.11 109.921 299.402 108 297.055 108C294.921 108 293 109.707 293 112.055C293.213 114.189 294.921 116.11 297.055 116.11Z" fill="#F96B31"/>
<path d="M0 8C0 3.58172 3.58172 0 8 0H77V71H0V8Z" fill="#F9893D" fill-opacity="0.5"/>
<rect x="16.5" y="16.5" width="90" height="82" rx="7.5" fill="#1A1A1A" stroke="#D6B88D"/>
<path d="M294.5 111.947L16 111.947L2 88" stroke="#F96B31" stroke-width="0.5" stroke-miterlimit="10"/>
<path d="M234.5 107.334C235.816 107.334 237 106.281 237 104.834C237 103.518 235.947 102.334 234.5 102.334C233.184 102.334 232 103.386 232 104.834C232 106.281 233.053 107.334 234.5 107.334Z" fill="#FF842C"/>
<path d="M209.5 59C210.816 59 212 57.9474 212 56.5C212 55.1842 210.947 54 209.5 54C208.184 54 207 55.0526 207 56.5C207 57.9474 208.053 59 209.5 59Z" fill="#FF842C"/>
<path d="M225.792 50.736C228.8 50.736 230.48 52.752 230.48 56.4C230.48 60.048 228.8 62.08 225.792 62.08C222.768 62.08 221.104 60.048 221.104 56.4C221.104 52.752 222.768 50.736 225.792 50.736ZM225.792 51.952C223.744 51.952 222.688 53.424 222.688 56.4C222.688 59.36 223.744 60.848 225.792 60.848C227.84 60.848 228.896 59.36 228.896 56.4C228.896 53.424 227.84 51.952 225.792 51.952ZM231.471 50.8H235.551V62H234.015V52.192H231.471V50.8Z" fill="white"/>
<path d="M19 105L42.8879 105L234.5 105" stroke="#F9893D" stroke-width="0.5" stroke-miterlimit="10"/>
<path d="M121 57L130.533 57L207 57" stroke="#F9893D" stroke-width="0.5" stroke-miterlimit="10"/>
<g clip-path="url(#clip0_1_143)">
<path d="M61.2882 22C59.9123 22 58.5517 22.2859 57.287 22.8341L37.8355 31.2642C35.2741 32.3747 33.6046 34.9335 33.6046 37.7525V62.2565C33.6046 64.7087 34.4561 67.5968 35.7944 69.6473C40.3649 76.6503 45.5635 83.9578 57.1789 90.8968C58.431 91.6448 59.8772 92.0113 61.2882 92.0113C62.6981 92.0113 64.1449 91.6435 65.3975 90.8968C76.8949 84.0434 82.19 76.7065 86.7887 69.6473C88.1264 67.5939 88.9718 64.7056 88.9718 62.2565V37.7525C88.9718 34.9335 87.3022 32.3747 84.7408 31.2642L65.2893 22.8341C64.0247 22.2859 62.664 22 61.2882 22Z" fill="#F9893D"/>
<ellipse cx="61" cy="56.5942" rx="14" ry="14.1623" fill="white"/>
<g clip-path="url(#clip1_1_143)">
<path d="M66.2764 55.4615H65.9647V54.0023C65.9647 51.3036 63.823 49.0491 61.1462 49.001C61.0731 48.9997 60.9269 48.9997 60.8538 49.001C58.1769 49.0491 56.0353 51.3036 56.0353 54.0023V55.4615H55.7235C55.243 55.4615 54.8511 55.9572 54.8511 56.5696V63.888C54.8511 64.4996 55.243 65 55.7235 65H66.2764C66.7569 65 67.1488 64.4996 67.1488 63.888V56.5696C67.1488 55.9573 66.7569 55.4615 66.2764 55.4615ZM61.9886 60.2213V62.4327C61.9886 62.6859 61.7767 62.9002 61.5232 62.9002H60.4768C60.2233 62.9002 60.0114 62.6859 60.0114 62.4327V60.2213C59.7656 59.9794 59.6225 59.6449 59.6225 59.2748C59.6225 58.5735 60.1646 57.9709 60.8538 57.943C60.9269 57.9401 61.0732 57.9401 61.1462 57.943C61.8355 57.9709 62.3776 58.5735 62.3776 59.2748C62.3775 59.6449 62.2344 59.9794 61.9886 60.2213ZM63.9098 55.4615H61.1462H60.8538H58.0902V54.0023C58.0902 52.3947 59.3966 51.0655 61 51.0655C62.6033 51.0655 63.9099 52.3947 63.9099 54.0023V55.4615H63.9098Z" fill="#8585F2"/>
</g>
</g>
<defs>
<clipPath id="clip0_1_143">
<rect width="55" height="71" fill="white" transform="translate(34 22)"/>
</clipPath>
<clipPath id="clip1_1_143">
<rect width="16" height="16.1855" fill="white" transform="translate(53 48.5014)"/>
</clipPath>
</defs>
</svg>
