<svg width="302" height="117" viewBox="0 0 302 117" fill="none" xmlns="http://www.w3.org/2000/svg">
<path d="M297.055 116.11C299.189 116.11 301.11 114.402 301.11 112.055C301.11 109.921 299.402 108 297.055 108C294.921 108 293 109.707 293 112.055C293.213 114.189 294.921 116.11 297.055 116.11Z" fill="#F96B31"/>
<path d="M0 8C0 3.58172 3.58172 0 8 0H77V71H0V8Z" fill="#F9893D" fill-opacity="0.5"/>
<rect x="16.5" y="16.5" width="90" height="82" rx="7.5" fill="#1A1A1A" stroke="#D6B88D"/>
<path d="M294.5 111.947L16 111.947L2 88" stroke="#F96B31" stroke-width="0.5" stroke-miterlimit="10"/>
<path d="M234.5 107.334C235.816 107.334 237 106.281 237 104.834C237 103.518 235.947 102.334 234.5 102.334C233.184 102.334 232 103.386 232 104.834C232 106.281 233.053 107.334 234.5 107.334Z" fill="#FF842C"/>
<path d="M209.5 59C210.816 59 212 57.9474 212 56.5C212 55.1842 210.947 54 209.5 54C208.184 54 207 55.0526 207 56.5C207 57.9474 208.053 59 209.5 59Z" fill="#FF842C"/>
<path d="M225.792 50.736C228.8 50.736 230.48 52.752 230.48 56.4C230.48 60.048 228.8 62.08 225.792 62.08C222.768 62.08 221.104 60.048 221.104 56.4C221.104 52.752 222.768 50.736 225.792 50.736ZM225.792 51.952C223.744 51.952 222.688 53.424 222.688 56.4C222.688 59.36 223.744 60.848 225.792 60.848C227.84 60.848 228.896 59.36 228.896 56.4C228.896 53.424 227.84 51.952 225.792 51.952ZM233.999 60.608H240.079V62H231.983V60.816L236.319 56.32C237.247 55.392 237.855 54.4 237.855 53.712C237.855 52.704 237.039 52.096 235.663 52.096C234.623 52.096 233.423 52.608 232.495 53.456L231.839 52.288C233.023 51.328 234.447 50.736 235.855 50.736C238.015 50.736 239.455 51.808 239.455 53.504C239.455 54.592 238.607 55.872 237.375 57.152L233.999 60.608Z" fill="white"/>
<path d="M19 105L42.8879 105L234.5 105" stroke="#F9893D" stroke-width="0.5" stroke-miterlimit="10"/>
<path d="M121 57L130.533 57L207 57" stroke="#F9893D" stroke-width="0.5" stroke-miterlimit="10"/>
<g clip-path="url(#clip0_1_260)">
<path d="M61.2882 22.8022C59.9123 22.8022 58.5517 23.0848 57.287 23.6268L37.8355 31.9603C35.2741 33.058 33.6046 35.5876 33.6046 38.3743V62.5974C33.6046 65.0216 34.4561 67.8765 35.7944 69.9036C40.3649 76.8264 45.5635 84.0501 57.1789 90.9096C58.431 91.649 59.8772 92.0113 61.2882 92.0113C62.6981 92.0113 64.1449 91.6477 65.3975 90.9096C76.8949 84.1347 82.19 76.8819 86.7887 69.9036C88.1264 67.8737 88.9718 65.0185 88.9718 62.5974V38.3743C88.9718 35.5876 87.3022 33.058 84.7408 31.9603L65.2893 23.6268C64.0247 23.0848 62.664 22.8022 61.2882 22.8022Z" fill="#F9893D"/>
<circle cx="61" cy="57" r="14" fill="white"/>
<path d="M61.3652 62.9102C60.9451 63.4804 60.2908 63.8309 59.5835 63.8657C58.8761 63.9009 58.191 63.6158 57.7171 63.0894L53.4697 58.3759C52.7946 57.6273 52.8546 56.4732 53.6032 55.7982C54.3526 55.1232 55.5059 55.1835 56.181 55.9325L59.186 59.2675C59.2305 59.3171 59.2951 59.3436 59.3616 59.3404C59.4284 59.3372 59.4894 59.3038 59.5293 59.2506L65.7059 50.8732C66.3038 50.0618 67.4463 49.889 68.2582 50.4873C69.0693 51.0855 69.2417 52.228 68.6434 53.0391L61.3652 62.9102Z" fill="#8585F2"/>
</g>
<defs>
<clipPath id="clip0_1_260">
<rect width="55" height="71" fill="white" transform="translate(34 22)"/>
</clipPath>
</defs>
</svg>
