<svg width="302" height="117" viewBox="0 0 302 117" fill="none" xmlns="http://www.w3.org/2000/svg">
<path d="M297.055 116.11C299.189 116.11 301.11 114.402 301.11 112.055C301.11 109.921 299.402 108 297.055 108C294.921 108 293 109.707 293 112.055C293.213 114.189 294.921 116.11 297.055 116.11Z" fill="#F96B31"/>
<path d="M0 8C0 3.58172 3.58172 0 8 0H77V71H0V8Z" fill="#F9893D" fill-opacity="0.5"/>
<rect x="16.5" y="16.5" width="90" height="82" rx="7.5" fill="#1A1A1A" stroke="#D6B88D"/>
<path d="M294.5 111.947L16 111.947L2 88" stroke="#F96B31" stroke-width="0.5" stroke-miterlimit="10"/>
<path d="M234.5 107.334C235.816 107.334 237 106.281 237 104.834C237 103.518 235.947 102.334 234.5 102.334C233.184 102.334 232 103.386 232 104.834C232 106.281 233.053 107.334 234.5 107.334Z" fill="#FF842C"/>
<path d="M209.5 59C210.816 59 212 57.9474 212 56.5C212 55.1842 210.947 54 209.5 54C208.184 54 207 55.0526 207 56.5C207 57.9474 208.053 59 209.5 59Z" fill="#FF842C"/>
<path d="M225.792 50.736C228.8 50.736 230.48 52.752 230.48 56.4C230.48 60.048 228.8 62.08 225.792 62.08C222.768 62.08 221.104 60.048 221.104 56.4C221.104 52.752 222.768 50.736 225.792 50.736ZM225.792 51.952C223.744 51.952 222.688 53.424 222.688 56.4C222.688 59.36 223.744 60.848 225.792 60.848C227.84 60.848 228.896 59.36 228.896 56.4C228.896 53.424 227.84 51.952 225.792 51.952ZM236.255 55.552C238.447 55.68 239.919 56.752 239.919 58.544C239.919 60.624 238.239 62.08 235.567 62.08C234.127 62.08 232.623 61.6 231.615 60.912L232.271 59.664C233.151 60.352 234.319 60.768 235.471 60.768C237.327 60.768 238.415 59.888 238.415 58.592C238.415 57.248 237.295 56.56 235.423 56.56H233.887V55.584L237.327 52.192H232.159L232.143 50.8H239.343V51.776L235.583 55.504L236.255 55.552Z" fill="white"/>
<path d="M19 105L42.8879 105L234.5 105" stroke="#F9893D" stroke-width="0.5" stroke-miterlimit="10"/>
<path d="M121 57L130.533 57L207 57" stroke="#F9893D" stroke-width="0.5" stroke-miterlimit="10"/>
<g clip-path="url(#clip0_1_350)">
<path d="M61.2882 22.8022C59.9123 22.8022 58.5517 23.0848 57.287 23.6268L37.8355 31.9603C35.2741 33.058 33.6046 35.5876 33.6046 38.3743V62.5974C33.6046 65.0216 34.4561 67.8765 35.7944 69.9036C40.3649 76.8264 45.5635 84.0501 57.1789 90.9096C58.431 91.649 59.8772 92.0113 61.2882 92.0113C62.6981 92.0113 64.1449 91.6477 65.3975 90.9096C76.8949 84.1347 82.19 76.8819 86.7887 69.9036C88.1264 67.8737 88.9718 65.0185 88.9718 62.5974V38.3743C88.9718 35.5876 87.3022 33.058 84.7408 31.9603L65.2893 23.6268C64.0247 23.0848 62.664 22.8022 61.2882 22.8022Z" fill="#F9893D"/>
<circle cx="61" cy="57" r="14" fill="white"/>
<g clip-path="url(#clip1_1_350)">
<path d="M58.3333 57C56.1273 57 54.3333 55.206 54.3333 53C54.3333 50.794 56.1273 49 58.3333 49C60.5393 49 62.3333 50.794 62.3333 53C62.3333 55.206 60.5393 57 58.3333 57ZM67.6667 58.3333V57.6667C67.6667 56.196 66.4707 55 65 55C63.5293 55 62.3333 56.196 62.3333 57.6667V58.3333H61V63C61 64.1027 61.8973 65 63 65H67C68.1027 65 69 64.1027 69 63V58.3333H67.6667ZM63.6667 57.6667C63.6667 56.9313 64.2647 56.3333 65 56.3333C65.7353 56.3333 66.3333 56.9313 66.3333 57.6667V58.3333H63.6667V57.6667ZM65.6667 62.3333H64.3333V61H65.6667V62.3333ZM59.6667 63V58.3333H56.3333C54.4953 58.3333 53 59.8287 53 61.6667V65H60.3353C59.916 64.4427 59.6667 63.75 59.6667 63Z" fill="#8585F2"/>
</g>
</g>
<defs>
<clipPath id="clip0_1_350">
<rect width="55" height="71" fill="white" transform="translate(34 22)"/>
</clipPath>
<clipPath id="clip1_1_350">
<rect width="16" height="16" fill="white" transform="translate(53 49)"/>
</clipPath>
</defs>
</svg>
