<svg width="224" height="45" viewBox="0 0 224 45" fill="none" xmlns="http://www.w3.org/2000/svg">
<path d="M27.2959 44.347H39.0002V16.5117L27.2959 28.8994V44.347Z" fill="url(#paint0_linear_1_12813)"/>
<path d="M0 44.347H11.7043V28.8994L0 16.5117V44.347Z" fill="url(#paint1_linear_1_12813)"/>
<path d="M19.5007 28.8848H15.6133V44.3472H23.3882V28.8848H19.5007Z" fill="url(#paint2_linear_1_12813)"/>
<path d="M27.254 25.2407L39.0002 12.8752L38.9932 0.0292969L23.3946 16.5191H15.6127L0.0139866 0.0292969L0 12.8752L11.7462 25.2407H27.254Z" fill="url(#paint3_linear_1_12813)"/>
<path d="M163.055 31.3978C160.832 29.4169 152.064 28.5596 150.358 27.0961C147.317 22.8018 158.308 22.5801 158.364 26.8522L164.202 25.6696C162.706 20.481 159.412 18.9953 153.847 18.9732C146.24 18.0271 140.073 26.7857 146.778 31.8634C148.981 33.4156 154.05 34.5686 157.364 35.4038C163.062 39.2842 149.575 41.9968 149.351 35.463L143.143 36.4903C144.702 45.042 157.147 46.2985 162.307 41.7824C165.293 39.2399 166.181 33.896 163.055 31.3978Z" fill="#E8E8E8"/>
<path d="M191.945 31.1035C191.547 15.0055 167.991 15.2863 168.04 31.4361C167.369 49.0346 192.854 48.3916 191.945 31.1035ZM184.289 36.4548C178.144 41.9021 170.166 33.2692 175.703 27.0753C181.891 21.6354 189.764 30.2535 184.289 36.4548Z" fill="#E8E8E8"/>
<path d="M204.014 20.3694C203.847 16.9473 207.056 17.4572 209.3 17.9894L210.132 13.4734C199.693 10.7017 197.274 14.7225 198.001 25.3067H195.002V31.6558H198.001V44.3613H204.007V31.6558H207.007V25.3067H204.007C204.007 25.1515 204.007 20.6281 204.014 20.3768V20.3694Z" fill="#E8E8E8"/>
<path d="M223.185 37.9906C217.927 40.3705 219.137 35.6845 219.018 31.6341H222.031V25.2999H219.018C219.018 22.8755 219.032 14.893 218.976 12.6091L213.033 18.9582V25.3072H210.033V31.6415H213.033C212.613 41.287 213.396 46.7196 223.709 43.3492L223.185 37.998V37.9906Z" fill="#E8E8E8"/>
<path d="M65.3179 12.6543L60.0041 33.601L54.6833 12.6543H45.0137V44.3478H51.0196V18.996L57.0046 44.3478H63.0106L69.0025 18.996V44.3478H75.0085V12.6543H65.3248H65.3179Z" fill="#E8E8E8"/>
<path d="M98.6691 40.7857C97.7811 36.5653 99.2984 26.4467 97.6203 22.6403C94.0685 16.6755 80.6862 17.5329 78.8543 25.1607L84.0073 27.1785C84.7904 22.692 92.9778 22.7585 92.4114 27.6737C90.7474 28.6345 83.6927 29.5954 81.5811 30.8741C70.9606 39.1375 85.5944 49.4999 92.9009 41.4139C93.0966 42.1087 93.5161 43.7348 93.7049 44.1709H99.7668C99.2354 42.9735 98.8649 41.8353 98.6691 40.7783V40.7857ZM92.4114 33.3945C93.8028 39.5735 84.9162 43.3431 84.0073 36.6614C83.8814 32.9584 90.216 33.121 92.4114 32.0345V33.3945Z" fill="#E8E8E8"/>
<path d="M112.869 19.0469C110.457 19.2538 109.597 19.8303 108.01 22.3507V19.0469H108.003L102.018 25.3738V44.3544H108.024C108.653 38.8923 105.248 20.4586 115.008 25.9207C115.456 24.5755 116.442 21.6412 116.903 20.2738C115.61 19.4534 114.267 19.0543 112.869 19.0543V19.0469Z" fill="#E8E8E8"/>
<path d="M130.522 30.134L141.024 19.0324H132.424L126.02 25.8323V0L120.014 6.34167V44.3473H126.02V34.8792L126.285 34.6131L135.487 44.3473H144.017L130.522 30.134Z" fill="#E8E8E8"/>
<defs>
<linearGradient id="paint0_linear_1_12813" x1="33.148" y1="44.214" x2="33.148" y2="21.5747" gradientUnits="userSpaceOnUse">
<stop stop-color="#F96B31"/>
<stop offset="1" stop-color="#F9893D"/>
</linearGradient>
<linearGradient id="paint1_linear_1_12813" x1="5.85213" y1="44.214" x2="5.85213" y2="21.5747" gradientUnits="userSpaceOnUse">
<stop stop-color="#F96B31"/>
<stop offset="1" stop-color="#F9893D"/>
</linearGradient>
<linearGradient id="paint2_linear_1_12813" x1="19.5007" y1="44.2141" x2="19.5007" y2="21.5749" gradientUnits="userSpaceOnUse">
<stop stop-color="#F96B31"/>
<stop offset="1" stop-color="#F9893D"/>
</linearGradient>
<linearGradient id="paint3_linear_1_12813" x1="19.5001" y1="44.214" x2="19.5001" y2="21.5747" gradientUnits="userSpaceOnUse">
<stop stop-color="#F96B31"/>
<stop offset="1" stop-color="#F9893D"/>
</linearGradient>
</defs>
</svg>
